<svg width="181" height="174" viewBox="0 0 181 174" fill="none" xmlns="http://www.w3.org/2000/svg">
<g filter="url(#filter0_d_23_10)">
<path fill-rule="evenodd" clip-rule="evenodd" d="M79.4815 1.64468C72.1044 2.39131 57.8226 6.5343 50.6115 10.0201C33.7678 18.1609 20.1032 31.854 11.5173 49.1945C5.25938 61.8315 3.95798 67.8995 4.01618 84.1711C4.07247 100.256 5.68298 107.342 12.0268 119.431C17.115 129.125 20.5621 133.948 27.1492 140.59C39.1547 152.696 56.6624 161.935 73.5098 165.054C81.0081 166.442 100.567 166.141 107.989 164.522C129.645 159.801 148.492 147.666 160.485 130.721C173.524 112.3 178.759 89.9406 174.731 69.8756C168.179 37.2393 145.371 13.2439 112.121 4.01053C107.213 2.64779 91.5442 0.524741 88.2984 0.78305C87.5112 0.846029 83.5431 1.23394 79.4815 1.64468ZM110.179 7.95819C146.939 17.9218 171.283 48.1083 171.274 83.7148C171.269 106.317 162.52 125.383 144.917 141.152C137.965 147.379 134.633 149.568 125.985 153.589C111.225 160.452 105.88 161.642 89.7295 161.662C78.8194 161.676 75.0269 161.312 69.0284 159.679C52.4386 155.162 35.9451 144.888 25.7878 132.745C19.8972 125.702 12.7128 112.351 10.4554 104.252C8.15792 96.0077 7.61217 77.5592 9.40015 68.5302C15.4739 37.8526 42.3251 12.6205 75.418 6.49322C84.606 4.79277 101.055 5.48555 110.179 7.95819ZM33.5732 44.6006C32.6048 53.4643 32.7327 54.5067 34.7849 54.5067C36.1932 54.5067 36.758 53.6213 37.2618 50.6275C38.3761 44.0046 39.8454 42.6409 45.8629 42.6409H51.0885V62.1674C51.0885 83.0804 51.1534 82.802 46.2398 82.802C45.0462 82.802 44.4098 83.4364 44.4098 84.6275C44.4098 86.3426 45.0462 86.453 54.9049 86.453C64.7636 86.453 65.4 86.3426 65.4 84.6275C65.4 83.2365 64.7636 82.802 62.7285 82.802C57.938 82.802 57.7672 82.0709 57.7672 61.6262V42.6409H63.0148C68.8557 42.6409 72.0682 44.6599 72.0921 48.3456C72.1169 52.3207 73.2131 54.5067 75.1824 54.5067C76.9255 54.5067 77.0505 54.1033 76.5019 50.2715C76.168 47.9431 75.8951 44.4518 75.8951 42.5131V38.9899H55.0404H34.1867L33.5732 44.6006ZM95.9312 40.8154C95.9312 42.2065 96.5675 42.6409 98.6026 42.6409C103.227 42.6409 103.564 43.7234 103.558 58.5684C103.552 77.4095 101.998 82.1439 95.4388 83.3214C92.3752 83.8708 85.8826 81.6072 86.5982 80.2381C86.7804 79.8912 87.5198 78.4774 88.244 77.0973C90.0272 73.6927 88.3699 70.0235 85.0477 70.0235C76.9322 70.0235 78.4416 81.7752 86.997 85.1943C91.4364 86.9687 98.677 86.7725 102.576 84.7717C108.581 81.6912 109.655 78.1442 110.221 59.5287C110.712 43.3492 110.752 43.0927 112.866 42.8052C114.246 42.6181 115.013 41.8843 115.013 40.7515C115.013 39.1287 114.262 38.9899 105.472 38.9899C96.5675 38.9899 95.9312 39.1113 95.9312 40.8154ZM119.466 69.7195C119.116 70.0536 118.83 79.9113 118.83 91.6256V112.923L121.453 112.919C123.666 112.916 124.355 112.269 125.85 108.793C127.815 104.22 133.666 100.144 138.264 100.144C144.435 100.144 150.79 104.927 151.941 110.437C152.391 112.583 152.904 112.973 154.977 112.743L157.47 112.466L157.734 98.589L157.997 84.7115L151.532 78.1442C147.976 74.5325 143.686 71.022 141.997 70.3438C138.83 69.0724 120.669 68.5685 119.466 69.7195ZM147.452 78.6946L153.599 84.6275H138.122H122.646V78.6946V72.7617H131.976H141.306L147.452 78.6946ZM32.2165 100.829L32.4836 112.466L39.7939 112.731L47.1033 112.997L47.7311 110.264C48.9866 104.793 55.2026 100.144 61.2611 100.144C66.8111 100.144 73.0862 105.066 74.524 110.546L75.148 112.923H95.0801H115.013V101.057V89.1913H73.4812H31.9493L32.2165 100.829ZM56.3361 104.855C52.782 106.724 51.1305 109.578 51.14 113.836C51.1496 118.2 52.0483 119.825 55.8333 122.321C59.539 124.764 63.8753 124.299 67.7519 121.043C70.7134 118.555 71.1217 117.693 71.1036 113.969C71.0807 109.485 69.3891 106.619 65.7015 104.815C63.0758 103.531 58.8186 103.549 56.3361 104.855ZM131.736 106.783C127.416 110.915 127.074 115.872 130.813 120.124C137.983 128.275 151.699 121.251 148.508 111.062C147.099 106.564 144.534 104.58 139.408 104.028C135.458 103.602 134.822 103.83 131.736 106.783ZM64.5089 109.304C65.8523 109.992 66.3541 111.223 66.3541 113.836C66.3541 116.448 65.8523 117.679 64.5089 118.367C60.412 120.465 56.4143 118.82 55.3514 114.6C54.2227 110.115 59.7966 106.891 64.5089 109.304ZM143.606 111.326C144.918 113.579 144.918 114.092 143.606 116.346C140.741 121.266 133.141 119.388 133.141 113.759C133.141 108.1 140.705 106.341 143.606 111.326Z" fill="black"/>
</g>
<defs>
<filter id="filter0_d_23_10" x="0.0143433" y="0.761505" width="180.046" height="173.176" filterUnits="userSpaceOnUse" color-interpolation-filters="sRGB">
<feFlood flood-opacity="0" result="BackgroundImageFix"/>
<feColorMatrix in="SourceAlpha" type="matrix" values="0 0 0 0 0 0 0 0 0 0 0 0 0 0 0 0 0 0 127 0" result="hardAlpha"/>
<feOffset dy="4"/>
<feGaussianBlur stdDeviation="2"/>
<feComposite in2="hardAlpha" operator="out"/>
<feColorMatrix type="matrix" values="0 0 0 0 0 0 0 0 0 0 0 0 0 0 0 0 0 0 0.25 0"/>
<feBlend mode="normal" in2="BackgroundImageFix" result="effect1_dropShadow_23_10"/>
<feBlend mode="normal" in="SourceGraphic" in2="effect1_dropShadow_23_10" result="shape"/>
</filter>
</defs>
</svg>
